<?xml version="1.0" encoding="utf-8"?>
<!-- Generator: Adobe Illustrator 19.1.0, SVG Export Plug-In . SVG Version: 6.00 Build 0)  -->
<svg version="1.1" id="Layer_1" xmlns="http://www.w3.org/2000/svg" xmlns:xlink="http://www.w3.org/1999/xlink" x="0px" y="0px"
	 width="1172.3px" height="104.5px" viewBox="0 0 1172.3 104.5" enable-background="new 0 0 1172.3 104.5" xml:space="preserve">
<path fill="#222222" d="M0,102V3.7C0,2,0.8,1.2,2.5,1.2h15.2c1.3,0,2.3,0.5,3,1.6l36.9,61.4c0.2,0.4,0.4,0.5,0.7,0.4
	c0.2-0.1,0.4-0.3,0.4-0.7V3.7c0-1.7,0.8-2.5,2.5-2.5h15.5c1.7,0,2.5,0.8,2.5,2.5V102c0,1.7-0.8,2.5-2.5,2.5H61.6
	c-1.2,0-2.2-0.6-3-1.8l-37.1-62c-0.2-0.4-0.4-0.5-0.7-0.4c-0.2,0.1-0.4,0.3-0.4,0.7l0.1,61c0,1.7-0.8,2.5-2.5,2.5H2.5
	C0.8,104.5,0,103.7,0,102z"/>
<path fill="#222222" d="M165.5,19H118c-0.6,0-0.9,0.3-0.9,0.9v22.6c0,0.6,0.3,0.9,0.9,0.9h30.9c1.7,0,2.5,0.8,2.5,2.5v12.8
	c0,1.7-0.8,2.5-2.5,2.5H118c-0.6,0-0.9,0.3-0.9,0.9v23.6c0,0.6,0.3,0.9,0.9,0.9h47.5c1.7,0,2.5,0.8,2.5,2.5V102
	c0,1.7-0.8,2.5-2.5,2.5H98.8c-1.7,0-2.5-0.8-2.5-2.5V3.7c0-1.7,0.8-2.5,2.5-2.5h66.7c1.7,0,2.5,0.8,2.5,2.5v12.8
	C168,18.2,167.2,19,165.5,19z"/>
<path fill="#222222" d="M203.2,102.3L177.2,4c-0.1-0.2-0.1-0.4-0.1-0.7c0-1.4,0.8-2.1,2.4-2.1h16.8c1.5,0,2.4,0.7,2.7,2.2l13.9,58.9
	c0.1,0.4,0.3,0.6,0.6,0.6c0.3,0,0.5-0.2,0.6-0.6l13.3-58.9c0.3-1.5,1.2-2.2,2.7-2.2h16.7c1.6,0,2.5,0.7,2.8,2.2l14.5,58.9
	c0.1,0.4,0.3,0.6,0.5,0.6c0.2,0,0.4-0.2,0.5-0.6l13.3-58.9c0.3-1.5,1.2-2.2,2.7-2.2h16.1c0.9,0,1.5,0.3,1.8,0.8
	c0.3,0.5,0.4,1.2,0.2,2l-23.8,98.3c-0.3,1.5-1.2,2.2-2.8,2.2h-16.2c-1.6,0-2.5-0.7-2.8-2.2l-14.8-62.7c-0.1-0.4-0.3-0.6-0.6-0.6
	c-0.3,0-0.5,0.2-0.6,0.6l-13.7,62.7c-0.3,1.5-1.2,2.2-2.7,2.2H206C204.4,104.5,203.4,103.8,203.2,102.3z"/>
<path fill="#222222" d="M322.3,101.9c-5.8-2.6-10.3-6.2-13.4-10.8c-3.2-4.6-4.7-10-4.7-16.2v-2.5c0-1.7,0.8-2.5,2.5-2.5h15.5
	c1.7,0,2.5,0.6,2.5,1.9v2.1c0,3.9,1.8,7.3,5.4,10c3.6,2.7,8.3,4.1,14.1,4.1c5.2,0,9.1-1.1,11.6-3.3c2.5-2.2,3.8-4.9,3.8-8.2
	c0-2.4-0.8-4.4-2.4-6c-1.6-1.6-3.7-3-6.3-4.3c-2.7-1.2-6.9-2.9-12.8-5.1c-6.7-2.3-12.3-4.6-16.8-6.9c-4.5-2.4-8.4-5.6-11.5-9.7
	c-3.2-4.1-4.7-9.1-4.7-15.1c0-5.9,1.5-11.1,4.6-15.5c3-4.4,7.3-7.8,12.8-10.2S333.9,0,340.9,0c7.5,0,14.2,1.3,20.1,4
	c5.9,2.7,10.5,6.4,13.8,11.1c3.3,4.8,4.9,10.3,4.9,16.6v1.5c0,1.7-0.8,2.5-2.5,2.5h-15.5c-1.7,0-2.5-0.5-2.5-1.5v-1.5
	c0-4.1-1.7-7.7-5.1-10.6c-3.4-2.9-8-4.4-14-4.4c-4.7,0-8.4,1-10.9,3c-2.6,2-3.8,4.7-3.8,8.1c0,2.5,0.7,4.5,2.2,6.2
	c1.5,1.7,3.7,3.2,6.7,4.6c3,1.4,7.7,3.2,14,5.3c6.9,2.6,12.4,4.8,16.4,6.7c4,1.9,7.7,4.8,10.9,8.8c3.2,3.9,4.8,9,4.8,15.2
	c0,6-1.6,11.3-4.7,15.8c-3.1,4.5-7.5,8-13.1,10.5c-5.7,2.5-12.3,3.7-20,3.7S328.1,104.4,322.3,101.9z"/>
<path fill="#222222" d="M481.9,1.2h15.8c1.7,0,2.5,0.8,2.5,2.5V102c0,1.7-0.8,2.5-2.5,2.5h-15.8c-1.7,0-2.5-0.8-2.5-2.5V62.2
	c0-0.6-0.3-0.9-0.9-0.9h-32.3c-0.6,0-0.9,0.3-0.9,0.9V102c0,1.7-0.8,2.5-2.5,2.5H427c-1.7,0-2.5-0.8-2.5-2.5V3.7
	c0-1.7,0.8-2.5,2.5-2.5h15.8c1.7,0,2.5,0.8,2.5,2.5v38.8c0,0.6,0.3,0.9,0.9,0.9h32.3c0.6,0,0.9-0.3,0.9-0.9V3.7
	C479.4,2,480.2,1.2,481.9,1.2z"/>
<path fill="#222222" d="M667,102.5l-4.1-13.7c-0.1-0.5-0.4-0.7-0.9-0.7h-36.2c-0.5,0-0.8,0.2-0.9,0.7l-4.1,13.7
	c-0.5,1.4-1.4,2.1-2.8,2.1h-17.1c-0.9,0-1.5-0.3-1.9-0.8c-0.4-0.5-0.4-1.2-0.1-2l31.4-98.5c0.5-1.4,1.4-2.1,2.8-2.1h21.7
	c1.4,0,2.3,0.7,2.8,2.1l31.4,98.5c0.1,0.2,0.1,0.5,0.1,0.9c0,0.6-0.2,1.1-0.6,1.4c-0.4,0.3-0.9,0.5-1.6,0.5h-17.1
	C668.5,104.5,667.5,103.8,667,102.5z M630.9,71.9H657c0.6,0,0.8-0.3,0.7-1l-13.3-45c-0.1-0.4-0.3-0.6-0.5-0.6
	c-0.2,0-0.5,0.2-0.7,0.6l-13.1,45C630,71.6,630.3,71.9,630.9,71.9z"/>
<path fill="#222222" d="M702.5,102V3.7c0-1.7,0.8-2.5,2.5-2.5h36.2c7.4,0,13.9,1.3,19.4,3.9c5.6,2.6,9.9,6.3,12.9,11
	c3,4.7,4.6,10.2,4.6,16.4v40.8c0,6.2-1.5,11.7-4.6,16.4c-3.1,4.7-7.4,8.4-12.9,11c-5.6,2.6-12,3.9-19.4,3.9H705
	C703.3,104.5,702.5,103.7,702.5,102z M724.2,86.7h17.7c4.5,0,8.2-1.5,11-4.6c2.8-3,4.3-7.1,4.4-12.3v-34c0-5.1-1.4-9.2-4.2-12.3
	c-2.8-3-6.6-4.6-11.3-4.6h-17.6c-0.6,0-0.9,0.3-0.9,0.9v65.8C723.3,86.4,723.6,86.7,724.2,86.7z"/>
<path fill="#222222" d="M793.7,102V3.7c0-1.7,0.8-2.5,2.5-2.5H812c1.7,0,2.5,0.8,2.5,2.5v82.1c0,0.6,0.3,0.9,0.9,0.9h47.4
	c1.7,0,2.5,0.8,2.5,2.5V102c0,1.7-0.8,2.5-2.5,2.5h-66.6C794.6,104.5,793.7,103.7,793.7,102z"/>
<path fill="#222222" d="M878.2,102V3.7c0-1.7,0.8-2.5,2.5-2.5h15.8c1.7,0,2.5,0.8,2.5,2.5V102c0,1.7-0.8,2.5-2.5,2.5h-15.8
	C879,104.5,878.2,103.7,878.2,102z"/>
<path fill="#222222" d="M917,102V3.7c0-1.7,0.8-2.5,2.5-2.5h15.2c1.3,0,2.3,0.5,3,1.6l36.9,61.4c0.2,0.4,0.4,0.5,0.7,0.4
	c0.2-0.1,0.4-0.3,0.4-0.7V3.7c0-1.7,0.8-2.5,2.5-2.5h15.5c1.7,0,2.5,0.8,2.5,2.5V102c0,1.7-0.8,2.5-2.5,2.5h-15.1
	c-1.2,0-2.2-0.6-3-1.8l-37.1-62c-0.2-0.4-0.4-0.5-0.7-0.4c-0.2,0.1-0.4,0.3-0.4,0.7l0.1,61c0,1.7-0.8,2.5-2.5,2.5h-15.6
	C917.8,104.5,917,103.7,917,102z"/>
<path fill="#222222" d="M1082.5,19H1035c-0.6,0-0.9,0.3-0.9,0.9v22.6c0,0.6,0.3,0.9,0.9,0.9h30.9c1.7,0,2.5,0.8,2.5,2.5v12.8
	c0,1.7-0.8,2.5-2.5,2.5H1035c-0.6,0-0.9,0.3-0.9,0.9v23.6c0,0.6,0.3,0.9,0.9,0.9h47.5c1.7,0,2.5,0.8,2.5,2.5V102
	c0,1.7-0.8,2.5-2.5,2.5h-66.7c-1.7,0-2.5-0.8-2.5-2.5V3.7c0-1.7,0.8-2.5,2.5-2.5h66.7c1.7,0,2.5,0.8,2.5,2.5v12.8
	C1085,18.2,1084.2,19,1082.5,19z"/>
<path fill="#222222" d="M1114.3,101.9c-5.8-2.6-10.3-6.2-13.4-10.8c-3.2-4.6-4.7-10-4.7-16.2v-2.5c0-1.7,0.8-2.5,2.5-2.5h15.5
	c1.7,0,2.5,0.6,2.5,1.9v2.1c0,3.9,1.8,7.3,5.4,10c3.6,2.7,8.3,4.1,14.1,4.1c5.2,0,9.1-1.1,11.6-3.3s3.8-4.9,3.8-8.2
	c0-2.4-0.8-4.4-2.4-6c-1.6-1.6-3.7-3-6.3-4.3c-2.7-1.2-6.9-2.9-12.8-5.1c-6.7-2.3-12.3-4.6-16.8-6.9c-4.5-2.4-8.4-5.6-11.5-9.7
	c-3.2-4.1-4.7-9.1-4.7-15.1c0-5.9,1.5-11.1,4.6-15.5c3-4.4,7.3-7.8,12.8-10.2c5.5-2.4,11.7-3.5,18.7-3.5c7.5,0,14.2,1.3,20.1,4
	c5.9,2.7,10.5,6.4,13.8,11.1c3.3,4.8,4.9,10.3,4.9,16.6v1.5c0,1.7-0.8,2.5-2.5,2.5h-15.5c-1.7,0-2.5-0.5-2.5-1.5v-1.5
	c0-4.1-1.7-7.7-5.1-10.6c-3.4-2.9-8-4.4-14-4.4c-4.7,0-8.4,1-10.9,3c-2.6,2-3.8,4.7-3.8,8.1c0,2.5,0.7,4.5,2.2,6.2
	c1.5,1.7,3.7,3.2,6.7,4.6c3,1.4,7.7,3.2,14,5.3c6.9,2.6,12.4,4.8,16.4,6.7c4,1.9,7.7,4.8,10.9,8.8c3.2,3.9,4.8,9,4.8,15.2
	c0,6-1.5,11.3-4.7,15.8c-3.1,4.5-7.5,8-13.1,10.5c-5.7,2.5-12.3,3.7-20,3.7C1126.8,105.7,1120.1,104.4,1114.3,101.9z"/>
<path fill="#20409A" d="M605,19h-86.7c-0.9,0-1.6-0.7-1.6-1.6V2.8c0-0.9,0.7-1.6,1.6-1.6H605c0.9,0,1.6,0.7,1.6,1.6v14.7
	C606.6,18.3,605.9,19,605,19z"/>
<path fill="#20409A" d="M586,61.8h-67.7c-0.9,0-1.6-0.7-1.6-1.6V45.5c0-0.9,0.7-1.6,1.6-1.6H586c0.9,0,1.6,0.7,1.6,1.6v14.7
	C587.6,61.1,586.9,61.8,586,61.8z"/>
<path fill="#20409A" d="M576,104.5h-57.7c-0.9,0-1.6-0.7-1.6-1.6V88.3c0-0.9,0.7-1.6,1.6-1.6H576c0.9,0,1.6,0.7,1.6,1.6v14.7
	C577.6,103.8,576.9,104.5,576,104.5z"/>
</svg>
